<?xml version="1.0" encoding="UTF-8"?>
<svg width="14px" height="15px" viewBox="0 0 14 15" version="1.1" xmlns="http://www.w3.org/2000/svg" xmlns:xlink="http://www.w3.org/1999/xlink">
    <title>编组 14</title>
    <defs>
        <linearGradient x1="50%" y1="0%" x2="50%" y2="100%" id="linearGradient-1">
            <stop stop-color="#FF8000" offset="0%"></stop>
            <stop stop-color="#FF0A43" offset="100%"></stop>
        </linearGradient>
    </defs>
    <g id="页面-1" stroke="none" stroke-width="1" fill="none" fill-rule="evenodd">
        <g id="切图" transform="translate(-246.000000, -186.000000)">
            <g id="编组-14" transform="translate(246.000000, 186.000000)">
                <rect id="矩形" x="0" y="1" width="14" height="14"></rect>
                <g id="编组-43" transform="translate(1.000000, 0.000000)" fill="url(#linearGradient-1)">
                    <path d="M11.9003237,7.63579761 C11.7907211,7.03872935 11.5943975,6.46945025 11.3163423,5.94593433 C11.2148986,5.75455922 11.100368,5.56316366 10.9891704,5.37833199 C10.6308558,4.77799201 10.2595771,4.15800127 10.2710077,3.4708994 C10.2710077,3.43495139 10.2726026,3.39734707 10.2742794,3.3597223 C10.2824382,3.16010655 10.2906584,2.95562411 10.1695639,2.79371492 C10.0289004,2.60393478 9.76881924,2.56790497 9.57249566,2.61861661 C9.35817762,2.67421539 9.18318155,2.81655561 9.04084133,2.94748571 C8.57787265,3.37601955 8.21963988,3.91262235 8.00045516,4.50314717 C7.43604274,3.59358886 7.32151213,2.41742635 7.70266739,1.41466494 C7.72231815,1.36393285 7.74356387,1.31322121 7.76321464,1.26248911 C7.8270336,1.10217489 7.89406295,0.93858894 7.91866218,0.761916117 C7.94804631,0.549274834 7.90555486,0.266271146 7.69780071,0.109249085 C7.48350311,-0.0510651426 7.17101306,-0.0346860997 6.76534036,0.15668901 C5.80834212,0.611417046 4.95446438,1.31976464 4.29844383,2.20478507 C3.66702253,3.05706785 3.24495033,4.03531181 3.07482095,5.04134494 C3.01108377,4.90227643 2.97673073,4.74036724 2.94231633,4.58164798 C2.87688195,4.27245009 2.8081963,3.95351884 2.5137825,3.83242434 C2.15552927,3.68521744 1.78251242,3.99601029 1.59273227,4.19394928 C1.15436283,4.64875911 0.797725016,5.18855184 0.531100371,5.79872742 C0.277562602,6.38109339 0.112299899,7.01091974 0.0403425303,7.67342237 C-0.101997692,8.98705842 0.13522238,10.330099 0.706096438,11.4555499 C1.17233683,12.3749234 1.89704303,13.1699102 2.80165287,13.7539734 C3.70464729,14.3379547 4.7254645,14.6716701 5.75601507,14.720705 C5.84275652,14.7256739 5.93103158,14.7272689 6.01936799,14.7272689 C6.96325891,14.7272689 7.91539046,14.4901101 8.78889852,14.0337053 C9.74422,13.5379786 10.540904,12.8165441 11.0922091,11.9463078 C11.879078,10.7047109 12.1734918,9.13426533 11.9003237,7.63579761 Z M9.71315912,5.65479224 C9.80971573,5.81183475 9.87515011,5.98523585 9.96675824,6.14555008 C10.1074217,6.38933404 10.2366546,6.63798468 10.3462572,6.89806588 C10.5474475,7.3757164 10.6848392,7.88117653 10.738843,8.3965336 L10.7306842,8.39326189 L10.7355713,8.4635425 C10.7421147,8.5584428 10.7453864,8.65493806 10.7453864,8.75149466 C10.7453864,11.3475423 8.63187646,13.4594778 6.03247532,13.4594778 C4.7074087,13.4594778 3.43802265,12.8967421 2.54484338,11.9152264 C2.04913706,11.3688698 1.69585276,10.6981674 1.52402617,9.97344079 C1.40133671,9.45489378 1.38663443,8.91180889 1.37354755,8.38671845 L1.36868087,8.2214353 C1.35557354,7.73396962 1.34246622,7.23178121 1.4864014,6.76554082 C1.54862541,6.56594551 1.62874163,6.36641155 1.72364192,6.17333924 C1.73345708,6.15368848 1.77596898,6.08827455 1.82013718,6.02126566 C1.91342207,5.8805204 1.96902084,5.79218398 2.00169714,5.73331349 C2.28149045,6.35817091 2.695322,6.92912676 3.2057306,7.385552 C3.32347159,7.56549655 3.52141058,7.67342237 3.73738493,7.67342237 C3.77660466,7.67342237 3.81422943,7.67015066 3.85512592,7.66358677 C3.9647285,7.6440178 4.06617224,7.59490112 4.14796521,7.52460006 C4.18397457,7.49513414 4.21665086,7.46405281 4.24611678,7.42972021 C4.40156432,7.24321178 4.43591737,6.98145382 4.33447364,6.76067414 C4.27065467,6.33692519 4.26081906,5.90017116 4.30825899,5.46174037 C4.45548634,4.0941823 5.16054177,2.84107305 6.24517795,2.01013824 C6.22057871,2.20965175 6.20914814,2.41253922 6.20914814,2.61047821 C6.20914814,4.07780326 6.84713333,5.46828381 7.95788191,6.4269588 C8.09695042,6.54637654 8.28018712,6.59868315 8.46013167,6.57248895 C8.63514818,6.54637654 8.79051393,6.44652777 8.88379882,6.29930042 C9.03427744,6.0637571 9.06049209,5.78891227 9.0866045,5.52226717 C9.10298354,5.34399939 9.1226343,5.16076268 9.17823308,4.99390501 C9.26170281,5.09367199 9.34509074,5.19350032 9.43015544,5.29326729 C9.48902593,5.36365015 9.54957318,5.43560752 9.60844367,5.50590858 C9.64772474,5.5533485 9.68207779,5.60246518 9.71315912,5.65479224 Z" id="Fill-1"></path>
                </g>
            </g>
        </g>
    </g>
</svg>